<svg width="25" height="24" viewBox="0 0 25 24" fill="none" xmlns="http://www.w3.org/2000/svg">
<path d="M20.4139 5.94334H16.8165V5.22386C16.8165 4.65141 16.5891 4.1024 16.1844 3.69762C15.7796 3.29284 15.2306 3.06543 14.6581 3.06543H10.3413C9.7688 3.06543 9.2198 3.29284 8.81501 3.69762C8.41023 4.1024 8.18282 4.65141 8.18282 5.22386V5.94334H4.58544C4.2038 5.94334 3.8378 6.09494 3.56794 6.3648C3.29809 6.63465 3.14648 7.00066 3.14648 7.38229V18.8939C3.14648 19.2756 3.29809 19.6416 3.56794 19.9114C3.8378 20.1813 4.2038 20.3329 4.58544 20.3329H20.4139C20.7956 20.3329 21.1616 20.1813 21.4314 19.9114C21.7013 19.6416 21.8529 19.2756 21.8529 18.8939V7.38229C21.8529 7.00066 21.7013 6.63465 21.4314 6.3648C21.1616 6.09494 20.7956 5.94334 20.4139 5.94334ZM9.62178 5.22386C9.62178 5.03304 9.69758 4.85004 9.83251 4.71511C9.96743 4.58019 10.1504 4.50438 10.3413 4.50438H14.6581C14.8489 4.50438 15.0319 4.58019 15.1669 4.71511C15.3018 4.85004 15.3776 5.03304 15.3776 5.22386V5.94334H9.62178V5.22386ZM15.3776 7.38229V18.8939H9.62178V7.38229H15.3776ZM4.58544 7.38229H8.18282V18.8939H4.58544V7.38229ZM20.4139 18.8939H16.8165V7.38229H20.4139V18.8939Z" fill="#3A37C6"/>
</svg>
