<svg width="20" height="20" viewBox="0 0 20 20" fill="none" xmlns="http://www.w3.org/2000/svg">
<path fill-rule="evenodd" clip-rule="evenodd" d="M16.4802 5.04018C16.8531 5.36978 16.888 5.93997 16.5584 6.31528L9.64154 14.1343C9.56166 14.2246 9.46449 14.298 9.35576 14.3502C9.24703 14.4023 9.12896 14.4321 9.00852 14.4378C8.88808 14.4435 8.76772 14.425 8.65454 14.3835C8.54136 14.3419 8.43767 14.278 8.34959 14.1957L3.83861 9.98542C3.66507 9.82187 3.56334 9.59628 3.55565 9.35795C3.54795 9.11961 3.63493 8.88793 3.79756 8.71353C3.96019 8.53914 4.18524 8.43622 4.42353 8.42728C4.66182 8.41833 4.89396 8.50409 5.06921 8.6658L8.90655 12.2385L15.2099 5.11716C15.2885 5.02826 15.3838 4.95573 15.4905 4.90374C15.5972 4.85174 15.713 4.82129 15.8315 4.81414C15.9499 4.80699 16.0686 4.82327 16.1808 4.86206C16.2929 4.90085 16.3963 4.96137 16.485 5.04018H16.4802Z" fill="#5856D6"/>
</svg>
