<svg width="21" height="21" viewBox="0 0 21 21" fill="none" xmlns="http://www.w3.org/2000/svg">
<g clip-path="url(#clip0_44_219)">
<path d="M8.79436 13.8977L11.3525 14.7237C11.3525 14.7237 17.7479 13.4846 18.6006 13.4846C19.4533 13.4846 19.4533 14.3107 18.6006 15.1368C17.7479 15.9628 14.7634 18.441 12.2052 18.441C9.64708 18.441 7.94165 17.2019 6.23622 17.2019H1.97266" stroke="#3A37C6" stroke-width="2" stroke-linecap="round" stroke-linejoin="round"/>
<path d="M1.97266 12.2455C2.82537 11.4194 4.5308 10.1803 6.23622 10.1803C7.94165 10.1803 11.992 11.8324 12.6316 12.6585C13.2711 13.4846 11.3525 14.7237 11.3525 14.7237M7.08894 7.70211V4.39784C7.08894 4.17876 7.17877 3.96864 7.33869 3.81373C7.4986 3.65881 7.7155 3.57178 7.94165 3.57178H18.1742C18.4004 3.57178 18.6173 3.65881 18.7772 3.81373C18.9371 3.96864 19.0269 4.17876 19.0269 4.39784V11.0064" stroke="#3A37C6" stroke-width="2" stroke-linecap="round" stroke-linejoin="round"/>
<path d="M10.9258 3.57178H15.1893V7.28907H10.9258V3.57178Z" stroke="#3A37C6" stroke-width="2" stroke-linecap="round" stroke-linejoin="round"/>
</g>
<defs>
<clipPath id="clip0_44_219">
<rect width="20.4651" height="19.8256" fill="white" transform="translate(0.267578 0.267456)"/>
</clipPath>
</defs>
</svg>
