<svg width="30" height="30" viewBox="0 0 30 30" fill="none" xmlns="http://www.w3.org/2000/svg">
<path d="M15 3.75H6.25C5.58696 3.75 4.95107 4.01339 4.48223 4.48223C4.01339 4.95107 3.75 5.58696 3.75 6.25V23.75C3.75 24.413 4.01339 25.0489 4.48223 25.5178C4.95107 25.9866 5.58696 26.25 6.25 26.25H23.75C24.413 26.25 25.0489 25.9866 25.5178 25.5178C25.9866 25.0489 26.25 24.413 26.25 23.75V15" stroke="#3A37C6" stroke-width="2" stroke-linecap="round" stroke-linejoin="round"/>
<path d="M22.9679 3.28153C23.4652 2.78425 24.1396 2.50488 24.8429 2.50488C25.5462 2.50488 26.2206 2.78425 26.7179 3.28153C27.2152 3.77881 27.4945 4.45327 27.4945 5.15653C27.4945 5.85979 27.2152 6.53425 26.7179 7.03153L15.4516 18.299C15.1548 18.5956 14.7881 18.8127 14.3854 18.9303L10.7941 19.9803C10.6866 20.0117 10.5726 20.0135 10.464 19.9857C10.3555 19.9579 10.2564 19.9015 10.1772 19.8222C10.098 19.743 10.0415 19.6439 10.0137 19.5354C9.98589 19.4269 9.98777 19.3128 10.0191 19.2053L11.0691 15.614C11.1873 15.2116 11.4048 14.8454 11.7016 14.549L22.9679 3.28153Z" stroke="#3A37C6" stroke-width="2" stroke-linecap="round" stroke-linejoin="round"/>
</svg>
