<svg width="40" height="39" viewBox="0 0 40 39" fill="none" xmlns="http://www.w3.org/2000/svg">
<g clip-path="url(#clip0_54_328)">
<path d="M31.5781 27.8408C32.416 28.2598 33.1714 28.7739 33.8442 29.3833C34.5171 29.9927 35.0884 30.6719 35.5581 31.4209C36.0278 32.1699 36.396 32.9824 36.6626 33.8584C36.9292 34.7344 37.0625 35.6357 37.0625 36.5625H34.625C34.625 35.5596 34.4346 34.6138 34.0537 33.7251C33.6729 32.8364 33.1523 32.062 32.4922 31.4018C31.832 30.7417 31.0513 30.2148 30.1499 29.8213C29.2485 29.4277 28.3027 29.2373 27.3125 29.25C26.2969 29.25 25.3511 29.4404 24.4751 29.8213C23.5991 30.2021 22.8247 30.7226 22.1519 31.3828C21.479 32.043 20.9521 32.8237 20.5713 33.7251C20.1904 34.6264 20 35.5723 20 36.5625H17.5625C17.5625 35.6357 17.6895 34.7344 17.9434 33.8584C18.1973 32.9824 18.5654 32.1699 19.0479 31.4209C19.5303 30.6719 20.1079 29.9927 20.7808 29.3833C21.4536 28.7739 22.209 28.2598 23.0469 27.8408C22.0947 27.1553 21.3521 26.2983 20.8188 25.27C20.2856 24.2417 20.0127 23.1308 20 21.9375C20 20.9346 19.8096 19.9888 19.4287 19.1001C19.0479 18.2114 18.5273 17.437 17.8672 16.7768C17.207 16.1167 16.4263 15.5898 15.5249 15.1963C14.6235 14.8027 13.6777 14.6123 12.6875 14.625C11.6719 14.625 10.7261 14.8154 9.8501 15.1963C8.97412 15.5771 8.19971 16.0976 7.52686 16.7578C6.854 17.418 6.32715 18.1987 5.94629 19.1001C5.56543 20.0014 5.375 20.9473 5.375 21.9375H2.9375C2.9375 21.0107 3.06445 20.1094 3.31836 19.2334C3.57227 18.3574 3.94043 17.5449 4.42285 16.7959C4.90527 16.0469 5.48291 15.3677 6.15576 14.7583C6.82861 14.1489 7.58398 13.6348 8.42188 13.2158C7.46973 12.5303 6.72705 11.6733 6.19385 10.645C5.66064 9.61668 5.3877 8.50584 5.375 7.31248C5.375 6.30956 5.56543 5.36375 5.94629 4.47508C6.32715 3.58641 6.84766 2.812 7.50781 2.15184C8.16797 1.49168 8.94238 0.964828 9.83105 0.571274C10.7197 0.177719 11.6719 -0.0127106 12.6875 -1.52588e-05C13.6904 -1.52588e-05 14.6362 0.190414 15.5249 0.571274C16.4136 0.952133 17.188 1.47264 17.8481 2.1328C18.5083 2.79295 19.0352 3.57372 19.4287 4.47508C19.8223 5.37645 20.0127 6.32225 20 7.31248C20 8.50584 19.7334 9.61668 19.2002 10.645C18.667 11.6733 17.918 12.5303 16.9531 13.2158C17.918 13.6982 18.7812 14.3203 19.543 15.082C20.3047 15.8437 20.9268 16.707 21.4092 17.6719C22.0947 16.7197 22.9517 15.977 23.98 15.4438C25.0083 14.9106 26.1191 14.6377 27.3125 14.625C28.3154 14.625 29.2612 14.8154 30.1499 15.1963C31.0386 15.5771 31.813 16.0976 32.4731 16.7578C33.1333 17.418 33.6602 18.1987 34.0537 19.1001C34.4473 20.0014 34.6377 20.9473 34.625 21.9375C34.625 23.1308 34.3584 24.2417 33.8252 25.27C33.292 26.2983 32.543 27.1553 31.5781 27.8408ZM12.6875 12.1875C13.3604 12.1875 13.9888 12.0605 14.5728 11.8066C15.1567 11.5527 15.6772 11.2036 16.1343 10.7593C16.5913 10.3149 16.9404 9.80077 17.1816 9.21678C17.4229 8.6328 17.5498 7.99803 17.5625 7.31248C17.5625 6.63963 17.4355 6.01122 17.1816 5.42723C16.9277 4.84325 16.5786 4.32274 16.1343 3.86571C15.6899 3.40868 15.1758 3.05956 14.5918 2.81834C14.0078 2.57713 13.373 2.45018 12.6875 2.43748C12.0146 2.43748 11.3862 2.56444 10.8022 2.81834C10.2183 3.07225 9.69775 3.42137 9.24072 3.86571C8.78369 4.31004 8.43457 4.8242 8.19336 5.40819C7.95215 5.99217 7.8252 6.62694 7.8125 7.31248C7.8125 7.98534 7.93945 8.61375 8.19336 9.19774C8.44727 9.78172 8.79639 10.3022 9.24072 10.7593C9.68506 11.2163 10.1992 11.5654 10.7832 11.8066C11.3672 12.0478 12.002 12.1748 12.6875 12.1875ZM27.3125 26.8125C27.9854 26.8125 28.6138 26.6855 29.1978 26.4316C29.7817 26.1777 30.3022 25.8286 30.7593 25.3843C31.2163 24.9399 31.5654 24.4258 31.8066 23.8418C32.0479 23.2578 32.1748 22.623 32.1875 21.9375C32.1875 21.2646 32.0605 20.6362 31.8066 20.0522C31.5527 19.4682 31.2036 18.9477 30.7593 18.4907C30.3149 18.0337 29.8008 17.6846 29.2168 17.4433C28.6328 17.2021 27.998 17.0752 27.3125 17.0625C26.6396 17.0625 26.0112 17.1894 25.4272 17.4433C24.8433 17.6973 24.3228 18.0464 23.8657 18.4907C23.4087 18.935 23.0596 19.4492 22.8184 20.0332C22.5771 20.6172 22.4502 21.2519 22.4375 21.9375C22.4375 22.6103 22.5645 23.2388 22.8184 23.8227C23.0723 24.4067 23.4214 24.9272 23.8657 25.3843C24.3101 25.8413 24.8242 26.1904 25.4082 26.4316C25.9922 26.6728 26.627 26.7998 27.3125 26.8125ZM29.75 4.87498H22.4375V2.43748H32.1875V12.1875H29.75V4.87498Z" fill="#3A37C6"/>
</g>
<defs>
<clipPath id="clip0_54_328">
<rect width="39" height="39" fill="white" transform="translate(0.5)"/>
</clipPath>
</defs>
</svg>
