<svg width="25" height="25" viewBox="0 0 25 25" fill="none" xmlns="http://www.w3.org/2000/svg">
<path d="M15.2491 12.0808L15.7858 11.5441C15.6434 11.4019 15.4503 11.322 15.2491 11.322C15.0478 11.322 14.8548 11.4019 14.7124 11.5441L15.2491 12.0808ZM12.3855 9.21612L12.9221 9.7528C13.0643 9.6104 13.1442 9.41738 13.1442 9.21612C13.1442 9.01487 13.0643 8.82184 12.9221 8.67945L12.3855 9.21612ZM3.97178 5.09992C3.83763 5.24388 3.7646 5.4343 3.76807 5.63105C3.77155 5.8278 3.85125 6.01552 3.99039 6.15466C4.12954 6.2938 4.31726 6.37351 4.51401 6.37698C4.71075 6.38045 4.90117 6.30742 5.04514 6.17327L3.97178 5.09992ZM14.7124 11.5441L12.5637 13.6918L13.637 14.7652L15.7858 12.6174L14.7124 11.5441ZM12.5637 13.6918L5.11703 21.1374L6.1914 22.2108L13.638 14.7641L12.5637 13.6918ZM5.11703 21.1374C4.95562 21.2988 4.73671 21.3895 4.50846 21.3895C4.28021 21.3895 4.0613 21.2988 3.89989 21.1374L2.82654 22.2118C3.27278 22.6579 3.87796 22.9075 4.50897 22.9075C5.13998 22.9075 5.74515 22.6569 6.1914 22.2108L5.11703 21.1374ZM3.89989 21.1374L3.32777 20.5643L2.25341 21.6376L2.82654 22.2118L3.89989 21.1374ZM3.32777 20.5643C3.16638 20.4029 3.07572 20.184 3.07572 19.9557C3.07572 19.7275 3.16638 19.5086 3.32777 19.3472L2.25341 18.2738C1.80727 18.72 1.55664 19.3252 1.55664 19.9562C1.55664 20.5872 1.80727 21.1914 2.25341 21.6376L3.32777 20.5643ZM3.32777 19.3472L10.7744 11.9005L9.70004 10.8272L2.25341 18.2738L3.32777 19.3472ZM10.7744 11.9005L12.9211 9.7528L11.8478 8.67843L9.70004 10.8272L10.7744 11.9005ZM21.4421 12.1871C21.6035 12.3485 21.6942 12.5674 21.6942 12.7957C21.6942 13.0239 21.6035 13.2428 21.4421 13.4042L22.5165 14.4776C22.9626 14.0313 23.2132 13.4262 23.2132 12.7951C23.2132 12.1641 22.9626 11.559 22.5165 11.1127L21.4421 12.1871ZM21.4421 13.4042L20.1541 14.6933L21.2274 15.7666L22.5165 14.4786L21.4421 13.4042ZM20.1541 14.6933C20.0742 14.7733 19.9792 14.8368 19.8747 14.8802C19.7702 14.9235 19.6582 14.9458 19.545 14.9458C19.4319 14.9458 19.3198 14.9235 19.2153 14.8802C19.1108 14.8368 19.0159 14.7733 18.9359 14.6933L17.8626 15.7666C18.3088 16.2127 18.914 16.4634 19.545 16.4634C20.176 16.4634 20.7812 16.2127 21.2274 15.7666L20.1541 14.6933ZM15.4283 6.17226L20.4407 11.1846L21.514 10.1113L16.5017 5.09992L15.4283 6.17226ZM20.4407 11.1846L21.4421 12.1871L22.5165 11.1127L21.514 10.1113L20.4407 11.1846ZM18.9359 14.6933L17.9345 13.6908L16.8601 14.7641L17.8626 15.7666L18.9359 14.6933ZM17.9345 13.6908L15.7858 11.5421L14.7124 12.6164L16.8601 14.7641L17.9345 13.6908ZM17.9345 14.7641L21.514 11.1846L20.4407 10.1113L16.8601 13.6908L17.9345 14.7641ZM12.9221 8.67843L7.90977 3.66608L6.83642 4.73943L11.8488 9.75179L12.9221 8.67843ZM13.638 13.6908L10.7744 10.8262L9.70004 11.9005L12.5637 14.7641L13.638 13.6908ZM5.04514 6.17327C6.4219 4.79652 8.28918 4.02307 10.2362 4.02307C12.1832 4.02307 14.0505 4.79652 15.4273 6.17327L16.5006 5.09992C14.839 3.43842 12.5855 2.505 10.2357 2.505C7.88592 2.505 5.63338 3.43842 3.97178 5.09992L5.04514 6.17327Z" fill="#3A37C6"/>
</svg>
