<svg width="29" height="27" viewBox="0 0 29 27" fill="none" xmlns="http://www.w3.org/2000/svg">
<path d="M2.72461 13.5L13.4628 3.4777C13.588 3.36081 13.7366 3.26809 13.9002 3.20483C14.0637 3.14157 14.239 3.10901 14.4161 3.10901C14.5932 3.10901 14.7685 3.14157 14.9321 3.20483C15.0956 3.26809 15.2442 3.36081 15.3694 3.4777L26.1076 13.5M5.42265 10.9818V22.3136C5.42265 23.0086 6.02701 23.5727 6.77167 23.5727H11.7181V18.1166C11.7181 17.4216 12.3224 16.8576 13.0671 16.8576H15.7651C16.5098 16.8576 17.1141 17.4216 17.1141 18.1166V23.5727H22.0605C22.8052 23.5727 23.4096 23.0086 23.4096 22.3136V10.9818M9.91938 23.5727H19.8122" stroke="#3A37C6" stroke-width="2.5" stroke-linecap="round" stroke-linejoin="round"/>
</svg>
