<svg width="21" height="21" viewBox="0 0 21 21" fill="none" xmlns="http://www.w3.org/2000/svg">
<g clip-path="url(#clip0_44_194)">
<mask id="path-1-inside-1_44_194" fill="white">
<path d="M17.7002 5.77458V2.47032C17.7002 2.1782 17.5842 1.89805 17.3776 1.6915C17.1711 1.48494 16.8909 1.3689 16.5988 1.3689H3.93248C3.64036 1.3689 3.36021 1.48494 3.15365 1.6915C2.9471 1.89805 2.83105 2.1782 2.83105 2.47032V5.77458C2.83105 6.0667 2.9471 6.34685 3.15365 6.5534C3.36021 6.75996 3.64036 6.876 3.93248 6.876H16.5988C16.8909 6.876 17.1711 6.75996 17.3776 6.5534C17.5842 6.34685 17.7002 6.0667 17.7002 5.77458ZM3.93248 2.47032H16.5988V5.77458H3.93248V2.47032Z"/>
</mask>
<path d="M17.7002 5.77458V2.47032C17.7002 2.1782 17.5842 1.89805 17.3776 1.6915C17.1711 1.48494 16.8909 1.3689 16.5988 1.3689H3.93248C3.64036 1.3689 3.36021 1.48494 3.15365 1.6915C2.9471 1.89805 2.83105 2.1782 2.83105 2.47032V5.77458C2.83105 6.0667 2.9471 6.34685 3.15365 6.5534C3.36021 6.75996 3.64036 6.876 3.93248 6.876H16.5988C16.8909 6.876 17.1711 6.75996 17.3776 6.5534C17.5842 6.34685 17.7002 6.0667 17.7002 5.77458ZM3.93248 2.47032H16.5988V5.77458H3.93248V2.47032Z" fill="#3A37C6"/>
<path d="M16.5988 1.3689V-0.631104V1.3689ZM3.93248 1.3689V-0.631104V1.3689ZM2.83105 2.47032H0.831055H2.83105ZM2.83105 5.77458H0.831055H2.83105ZM3.93248 2.47032V0.470318H1.93248V2.47032H3.93248ZM16.5988 2.47032H18.5988V0.470318H16.5988V2.47032ZM16.5988 5.77458V7.77458H18.5988V5.77458H16.5988ZM3.93248 5.77458H1.93248V7.77458H3.93248V5.77458ZM19.7002 5.77458V2.47032H15.7002V5.77458H19.7002ZM19.7002 2.47032C19.7002 1.64777 19.3735 0.85891 18.7919 0.277282L15.9634 3.10571C15.7949 2.93719 15.7002 2.70864 15.7002 2.47032H19.7002ZM18.7919 0.277282C18.2102 -0.304348 17.4214 -0.631104 16.5988 -0.631104V3.3689C16.3605 3.3689 16.1319 3.27422 15.9634 3.10571L18.7919 0.277282ZM16.5988 -0.631104H3.93248V3.3689H16.5988V-0.631104ZM3.93248 -0.631104C3.10993 -0.631104 2.32107 -0.304348 1.73944 0.277282L4.56787 3.10571C4.39935 3.27423 4.17079 3.3689 3.93248 3.3689V-0.631104ZM1.73944 0.277282C1.15781 0.858911 0.831055 1.64777 0.831055 2.47032H4.83105C4.83105 2.70864 4.73638 2.93719 4.56787 3.10571L1.73944 0.277282ZM0.831055 2.47032V5.77458H4.83105V2.47032H0.831055ZM0.831055 5.77458C0.831055 6.59713 1.15781 7.38599 1.73944 7.96762L4.56787 5.13919C4.73638 5.30771 4.83105 5.53626 4.83105 5.77458H0.831055ZM1.73944 7.96762C2.32107 8.54925 3.10993 8.876 3.93248 8.876V4.876C4.17079 4.876 4.39935 4.97067 4.56787 5.13919L1.73944 7.96762ZM3.93248 8.876H16.5988V4.876H3.93248V8.876ZM16.5988 8.876C17.4214 8.876 18.2102 8.54924 18.7919 7.96762L15.9634 5.13919C16.1319 4.97067 16.3605 4.876 16.5988 4.876V8.876ZM18.7919 7.96762C19.3735 7.38599 19.7002 6.59713 19.7002 5.77458H15.7002C15.7002 5.53626 15.7949 5.3077 15.9634 5.13919L18.7919 7.96762ZM3.93248 4.47032H16.5988V0.470318H3.93248V4.47032ZM14.5988 2.47032V5.77458H18.5988V2.47032H14.5988ZM16.5988 3.77458H3.93248V7.77458H16.5988V3.77458ZM5.93248 5.77458V2.47032H1.93248V5.77458H5.93248Z" fill="#3A37C6" mask="url(#path-1-inside-1_44_194)"/>
<mask id="path-3-inside-2_44_194" fill="white">
<path d="M18.8015 3.57178H18.2508V7.03575L10.9264 9.37627C10.8103 9.41262 10.7096 9.48636 10.6398 9.58598C10.5701 9.6856 10.5353 9.8055 10.5409 9.92698V10.731H9.43945V18.441C9.43945 18.7331 9.5555 19.0132 9.76205 19.2198C9.96861 19.4263 10.2488 19.5424 10.5409 19.5424H11.6423C11.9344 19.5424 12.2146 19.4263 12.4211 19.2198C12.6277 19.0132 12.7437 18.7331 12.7437 18.441V10.731H11.6423V10.329L18.9667 7.97746C19.0828 7.94111 19.1835 7.86737 19.2533 7.76775C19.323 7.66813 19.3578 7.54823 19.3522 7.42675V4.12249C19.3522 3.97643 19.2942 3.83636 19.1909 3.73308C19.0877 3.6298 18.9476 3.57178 18.8015 3.57178ZM11.6423 18.441H10.5409V11.8324H11.6423V18.441Z"/>
</mask>
<path d="M18.8015 3.57178H18.2508V7.03575L10.9264 9.37627C10.8103 9.41262 10.7096 9.48636 10.6398 9.58598C10.5701 9.6856 10.5353 9.8055 10.5409 9.92698V10.731H9.43945V18.441C9.43945 18.7331 9.5555 19.0132 9.76205 19.2198C9.96861 19.4263 10.2488 19.5424 10.5409 19.5424H11.6423C11.9344 19.5424 12.2146 19.4263 12.4211 19.2198C12.6277 19.0132 12.7437 18.7331 12.7437 18.441V10.731H11.6423V10.329L18.9667 7.97746C19.0828 7.94111 19.1835 7.86737 19.2533 7.76775C19.323 7.66813 19.3578 7.54823 19.3522 7.42675V4.12249C19.3522 3.97643 19.2942 3.83636 19.1909 3.73308C19.0877 3.6298 18.9476 3.57178 18.8015 3.57178ZM11.6423 18.441H10.5409V11.8324H11.6423V18.441Z" fill="#3A37C6"/>
<path d="M18.2508 3.57178V1.57178H16.2508V3.57178H18.2508ZM18.2508 7.03575L18.8596 8.94084L20.2508 8.49628V7.03575H18.2508ZM10.9264 9.37627L11.5243 11.2848L11.5351 11.2814L10.9264 9.37627ZM10.5409 9.92698H12.5409V9.88122L12.5388 9.83551L10.5409 9.92698ZM10.5409 10.731V12.731H12.5409V10.731H10.5409ZM9.43945 10.731V8.73101H7.43945V10.731H9.43945ZM9.43945 18.441H11.4395H9.43945ZM12.7437 10.731H14.7437V8.73101H12.7437V10.731ZM11.6423 10.731H9.6423V12.731H11.6423V10.731ZM11.6423 10.329L11.0309 8.42473L9.6423 8.87055V10.329H11.6423ZM18.9667 7.97746L18.3688 6.06888L18.3554 6.0732L18.9667 7.97746ZM19.3522 7.42675H17.3522V7.47251L17.3543 7.51822L19.3522 7.42675ZM11.6423 18.441V20.441H13.6423V18.441H11.6423ZM10.5409 18.441H8.54087V20.441H10.5409V18.441ZM10.5409 11.8324V9.83244H8.54087V11.8324H10.5409ZM11.6423 11.8324H13.6423V9.83244H11.6423V11.8324ZM18.8015 1.57178H18.2508V5.57178H18.8015V1.57178ZM16.2508 3.57178V7.03575H20.2508V3.57178H16.2508ZM17.642 5.13065L10.3176 7.47117L11.5351 11.2814L18.8596 8.94084L17.642 5.13065ZM10.3285 7.46773C9.79101 7.63611 9.32438 7.97763 9.00139 8.43905L12.2783 10.7329C12.0948 10.9951 11.8297 11.1891 11.5243 11.2848L10.3285 7.46773ZM9.00139 8.43905C8.6784 8.90047 8.51721 9.45581 8.54297 10.0184L12.5388 9.83551C12.5534 10.1552 12.4618 10.4707 12.2783 10.7329L9.00139 8.43905ZM8.54087 9.92698V10.731H12.5409V9.92698H8.54087ZM10.5409 8.73101H9.43945V12.731H10.5409V8.73101ZM7.43945 10.731V18.441H11.4395V10.731H7.43945ZM7.43945 18.441C7.43945 19.2635 7.76621 20.0524 8.34784 20.634L11.1763 17.8056C11.3448 17.9741 11.4395 18.2026 11.4395 18.441H7.43945ZM8.34784 20.634C8.92947 21.2156 9.71833 21.5424 10.5409 21.5424V17.5424C10.7792 17.5424 11.0077 17.6371 11.1763 17.8056L8.34784 20.634ZM10.5409 21.5424H11.6423V17.5424H10.5409V21.5424ZM11.6423 21.5424C12.4648 21.5424 13.2537 21.2156 13.8353 20.634L11.0069 17.8056C11.1754 17.6371 11.404 17.5424 11.6423 17.5424V21.5424ZM13.8353 20.634C14.417 20.0524 14.7437 19.2635 14.7437 18.441H10.7437C10.7437 18.2026 10.8384 17.9741 11.0069 17.8056L13.8353 20.634ZM14.7437 18.441V10.731H10.7437V18.441H14.7437ZM12.7437 8.73101H11.6423V12.731H12.7437V8.73101ZM13.6423 10.731V10.329H9.6423V10.731H13.6423ZM12.2537 12.2333L19.5781 9.88173L18.3554 6.0732L11.0309 8.42473L12.2537 12.2333ZM19.5647 9.886C20.1021 9.71762 20.5687 9.37609 20.8917 8.91467L17.6148 6.62082C17.7983 6.35865 18.0635 6.1646 18.3688 6.06893L19.5647 9.886ZM20.8917 8.91467C21.2147 8.45326 21.3759 7.89792 21.3502 7.33529L17.3543 7.51822C17.3397 7.19853 17.4313 6.88299 17.6148 6.62082L20.8917 8.91467ZM21.3522 7.42675V4.12249H17.3522V7.42675H21.3522ZM21.3522 4.12249C21.3522 3.446 21.0835 2.79721 20.6052 2.31886L17.7767 5.14729C17.5049 4.8755 17.3522 4.50686 17.3522 4.12249H21.3522ZM20.6052 2.31886C20.1268 1.84051 19.478 1.57178 18.8015 1.57178V5.57178C18.4172 5.57178 18.0485 5.41909 17.7767 5.14729L20.6052 2.31886ZM11.6423 16.441H10.5409V20.441H11.6423V16.441ZM12.5409 18.441V11.8324H8.54087V18.441H12.5409ZM10.5409 13.8324H11.6423V9.83244H10.5409V13.8324ZM9.6423 11.8324V18.441H13.6423V11.8324H9.6423Z" fill="#3A37C6" mask="url(#path-3-inside-2_44_194)"/>
</g>
<defs>
<clipPath id="clip0_44_194">
<rect width="19.8256" height="19.8256" fill="white" transform="translate(0.62793 0.267456)"/>
</clipPath>
</defs>
</svg>
