<svg width="64" height="50" viewBox="0 0 64 50" fill="none" xmlns="http://www.w3.org/2000/svg">
<g clip-path="url(#clip0_307_1219)">
<path d="M11.6348 49.7511V46.4418C11.6348 45.1729 10.8663 44.3458 9.54904 44.3458C8.89054 44.3458 8.17704 44.5664 7.68304 45.2835C7.29904 44.6767 6.75029 44.3458 5.92704 44.3458C5.37804 44.3458 4.82954 44.5111 4.39029 45.1179V44.4561H3.23779V49.7511H4.39029V46.8277C4.39029 45.8903 4.88429 45.4488 5.65279 45.4488C6.42079 45.4488 6.80529 45.9453 6.80529 46.8277V49.7511H7.95779V46.8277C7.95779 45.8903 8.50629 45.4488 9.21979 45.4488C9.98829 45.4488 10.3723 45.9453 10.3723 46.8277V49.7511H11.6348ZM28.7025 44.4561H26.8368V42.8566H25.6843V44.4561H24.6415V45.5038H25.684V47.931C25.684 49.1445 26.178 49.8614 27.4953 49.8614C27.9893 49.8614 28.5378 49.696 28.9223 49.4754L28.5928 48.4825C28.2635 48.7031 27.8795 48.7583 27.605 48.7583C27.0563 48.7583 26.8368 48.4274 26.8368 47.8757V45.5038H28.7025V44.4561ZM38.4715 44.3455C37.813 44.3455 37.374 44.6767 37.0995 45.1179V44.4561H35.947V49.7511H37.0995V46.7727C37.0995 45.8903 37.4835 45.3938 38.197 45.3938C38.4165 45.3938 38.691 45.449 38.9105 45.5041L39.2398 44.4011C39.0203 44.3458 38.691 44.3458 38.4715 44.3458M23.7085 44.8975C23.1595 44.5114 22.3913 44.346 21.568 44.346C20.251 44.346 19.373 45.0078 19.373 46.0558C19.373 46.9385 20.0315 47.4347 21.184 47.6003L21.7328 47.6556C22.3365 47.7656 22.6658 47.9312 22.6658 48.2071C22.6658 48.593 22.2268 48.8689 21.4583 48.8689C20.6898 48.8689 20.0863 48.593 19.702 48.3174L19.1533 49.1998C19.757 49.641 20.5803 49.8616 21.4033 49.8616C22.94 49.8616 23.8183 49.1448 23.8183 48.1518C23.8183 47.2141 23.1048 46.7176 22.007 46.5523L21.4583 46.497C20.9643 46.4418 20.5803 46.3317 20.5803 46.0008C20.5803 45.6146 20.9643 45.394 21.568 45.394C22.2268 45.394 22.8853 45.6696 23.2145 45.8352L23.7085 44.8975ZM54.3323 44.346C53.6735 44.346 53.2345 44.6769 52.96 45.1181V44.4563H51.8075V49.7513H52.96V46.7729C52.96 45.8905 53.3443 45.394 54.0575 45.394C54.2773 45.394 54.5518 45.4493 54.7713 45.5043L55.1005 44.4013C54.881 44.346 54.5518 44.346 54.3323 44.346ZM39.624 47.1038C39.624 48.7033 40.7215 49.8616 42.423 49.8616C43.1913 49.8616 43.74 49.6963 44.2888 49.2551L43.74 48.3174C43.301 48.6483 42.862 48.8136 42.368 48.8136C41.435 48.8136 40.7765 48.1518 40.7765 47.1038C40.7765 46.1111 41.435 45.449 42.368 45.394C42.862 45.394 43.301 45.5593 43.74 45.8905L44.2888 44.9528C43.74 44.5114 43.1913 44.346 42.423 44.346C40.7215 44.346 39.624 45.5043 39.624 47.1038ZM50.271 47.1038V44.4563H49.1185V45.1181C48.7343 44.6219 48.1855 44.346 47.472 44.346C45.9903 44.346 44.8378 45.5043 44.8378 47.1038C44.8378 48.7033 45.9903 49.8616 47.472 49.8616C48.2403 49.8616 48.7893 49.586 49.1185 49.0895V49.7513H50.271V47.1038ZM46.045 47.1038C46.045 46.1661 46.6488 45.394 47.6365 45.394C48.5695 45.394 49.2283 46.1111 49.2283 47.1038C49.2283 48.0415 48.5695 48.8136 47.6365 48.8136C46.6488 48.7583 46.045 48.0415 46.045 47.1038ZM32.27 44.346C30.7333 44.346 29.6355 45.449 29.6355 47.1038C29.6355 48.7586 30.733 49.8616 32.3248 49.8616C33.093 49.8616 33.8615 49.641 34.4653 49.1448L33.9163 48.3174C33.4773 48.6483 32.9285 48.8689 32.3798 48.8689C31.6663 48.8689 30.9528 48.538 30.788 47.6001H34.6848V47.1591C34.7398 45.449 33.752 44.346 32.27 44.346ZM32.2698 45.3387C32.983 45.3387 33.4773 45.7802 33.5868 46.6076H30.8428C30.9525 45.8905 31.4465 45.3387 32.2698 45.3387ZM60.8628 47.1038V42.3604H59.7103V45.1181C59.326 44.6219 58.7773 44.346 58.0638 44.346C56.582 44.346 55.4295 45.5043 55.4295 47.1038C55.4295 48.7033 56.582 49.8616 58.0638 49.8616C58.8323 49.8616 59.381 49.586 59.7103 49.0895V49.7513H60.8628V47.1038ZM56.637 47.1038C56.637 46.1661 57.2405 45.394 58.2285 45.394C59.1615 45.394 59.82 46.1111 59.82 47.1038C59.82 48.0415 59.1615 48.8136 58.2285 48.8136C57.2405 48.7583 56.637 48.0415 56.637 47.1038ZM18.1103 47.1038V44.4563H16.9578V45.1181C16.5735 44.6219 16.0248 44.346 15.3113 44.346C13.8295 44.346 12.677 45.5043 12.677 47.1038C12.677 48.7033 13.8295 49.8616 15.3113 49.8616C16.0798 49.8616 16.6285 49.586 16.9578 49.0895V49.7513H18.1103V47.1038ZM13.8295 47.1038C13.8295 46.1661 14.4333 45.394 15.421 45.394C16.354 45.394 17.0128 46.1111 17.0128 47.1038C17.0128 48.0415 16.354 48.8136 15.421 48.8136C14.4333 48.7583 13.8295 48.0415 13.8295 47.1038Z" fill="black"/>
<path d="M23.3247 4.24707H40.6122V35.4659H23.3247V4.24707Z" fill="#FF5F00"/>
<path d="M24.4223 19.8565C24.4223 13.5136 27.3857 7.88744 31.9408 4.24698C28.5933 1.5995 24.3675 0 19.7575 0C8.83575 0 0 8.88015 0 19.8565C0 30.8329 8.83575 39.7131 19.7572 39.7131C24.3673 39.7131 28.593 38.1136 31.9408 35.4658C27.3857 31.8807 24.4223 26.1995 24.4223 19.8565Z" fill="#EB001B"/>
<path d="M63.9364 19.8565C63.9364 30.8327 55.1006 39.7131 44.1791 39.7131C39.5691 39.7131 35.3434 38.1136 31.9956 35.4658C36.6056 31.8256 39.5144 26.1995 39.5144 19.8565C39.5144 13.5136 36.5506 7.88744 31.9956 4.24698C35.3431 1.5995 39.5691 0 44.1791 0C55.1006 0 63.9364 8.93543 63.9364 19.8565Z" fill="#F79E1B"/>
</g>
<defs>
<clipPath id="clip0_307_1219">
<rect width="64" height="50" fill="white"/>
</clipPath>
</defs>
</svg>
