<svg width="53" height="53" viewBox="0 0 53 53" fill="none" xmlns="http://www.w3.org/2000/svg">
<circle cx="26.5" cy="26.5" r="26.5" fill="white"/>
<path d="M16.7152 37.2115C16.7152 37.2115 14.6768 37.2115 14.6768 35.1731C14.6768 33.1346 16.7152 27.0192 26.9075 27.0192C37.0998 27.0192 39.1383 33.1346 39.1383 35.1731C39.1383 37.2115 37.0998 37.2115 37.0998 37.2115H16.7152ZM26.9075 24.9808C28.5294 24.9808 30.0849 24.3365 31.2318 23.1896C32.3786 22.0428 33.0229 20.4873 33.0229 18.8654C33.0229 17.2435 32.3786 15.688 31.2318 14.5412C30.0849 13.3943 28.5294 12.75 26.9075 12.75C25.2856 12.75 23.7302 13.3943 22.5833 14.5412C21.4364 15.688 20.7921 17.2435 20.7921 18.8654C20.7921 20.4873 21.4364 22.0428 22.5833 23.1896C23.7302 24.3365 25.2856 24.9808 26.9075 24.9808Z" fill="black"/>
</svg>
