<svg width="19" height="19" viewBox="0 0 19 19" fill="none" xmlns="http://www.w3.org/2000/svg">
<path d="M5.74132 7.86047C5.4551 7.86047 5.1806 7.97418 4.9782 8.17657C4.77581 8.37896 4.66211 8.65346 4.66211 8.93969C4.66211 9.22591 4.77581 9.50042 4.9782 9.70281C5.1806 9.9052 5.4551 10.0189 5.74132 10.0189C6.02755 10.0189 6.30205 9.9052 6.50444 9.70281C6.70684 9.50042 6.82054 9.22591 6.82054 8.93969C6.82054 8.65346 6.70684 8.37896 6.50444 8.17657C6.30205 7.97418 6.02755 7.86047 5.74132 7.86047ZM8.97897 8.93969C8.97897 8.65346 9.09267 8.37896 9.29506 8.17657C9.49746 7.97418 9.77196 7.86047 10.0582 7.86047C10.3444 7.86047 10.6189 7.97418 10.8213 8.17657C11.0237 8.37896 11.1374 8.65346 11.1374 8.93969C11.1374 9.22591 11.0237 9.50042 10.8213 9.70281C10.6189 9.9052 10.3444 10.0189 10.0582 10.0189C9.77196 10.0189 9.49746 9.9052 9.29506 9.70281C9.09267 9.50042 8.97897 9.22591 8.97897 8.93969ZM13.2958 8.93969C13.2958 8.65346 13.4095 8.37896 13.6119 8.17657C13.8143 7.97418 14.0888 7.86047 14.375 7.86047C14.6613 7.86047 14.9358 7.97418 15.1382 8.17657C15.3406 8.37896 15.4543 8.65346 15.4543 8.93969C15.4543 9.22591 15.3406 9.50042 15.1382 9.70281C14.9358 9.9052 14.6613 10.0189 14.375 10.0189C14.0888 10.0189 13.8143 9.9052 13.6119 9.70281C13.4095 9.50042 13.2958 9.22591 13.2958 8.93969Z" fill="#3A37C6"/>
</svg>
