<svg width="49" height="48" viewBox="0 0 49 48" fill="none" xmlns="http://www.w3.org/2000/svg">
<mask id="path-1-inside-1_54_319" fill="white">
<path d="M10.732 40C9.81067 40 9.042 39.692 8.426 39.076C7.81 38.46 7.50133 37.6907 7.5 36.768V11.232C7.5 10.3107 7.80867 9.542 8.426 8.926C9.04333 8.31 9.81133 8.00133 10.73 8H29.346V10H10.732C10.424 10 10.1413 10.128 9.884 10.384C9.62667 10.64 9.49867 10.9227 9.5 11.232V36.77C9.5 37.0767 9.628 37.3587 9.884 37.616C10.14 37.8733 10.422 38.0013 10.73 38H36.27C36.5767 38 36.8587 37.872 37.116 37.616C37.3733 37.36 37.5013 37.078 37.5 36.77V18.154H39.5V36.77C39.5 37.69 39.192 38.4587 38.576 39.076C37.96 39.6933 37.1907 40.0013 36.268 40H10.732ZM16.5 33V31H30.5V33H16.5ZM16.5 27V25H30.5V27H16.5ZM16.5 21V19H30.5V21H16.5ZM35.5 16V12H31.5V10H35.5V6H37.5V10H41.5V12H37.5V16H35.5Z"/>
</mask>
<path d="M10.732 40C9.81067 40 9.042 39.692 8.426 39.076C7.81 38.46 7.50133 37.6907 7.5 36.768V11.232C7.5 10.3107 7.80867 9.542 8.426 8.926C9.04333 8.31 9.81133 8.00133 10.73 8H29.346V10H10.732C10.424 10 10.1413 10.128 9.884 10.384C9.62667 10.64 9.49867 10.9227 9.5 11.232V36.77C9.5 37.0767 9.628 37.3587 9.884 37.616C10.14 37.8733 10.422 38.0013 10.73 38H36.27C36.5767 38 36.8587 37.872 37.116 37.616C37.3733 37.36 37.5013 37.078 37.5 36.77V18.154H39.5V36.77C39.5 37.69 39.192 38.4587 38.576 39.076C37.96 39.6933 37.1907 40.0013 36.268 40H10.732ZM16.5 33V31H30.5V33H16.5ZM16.5 27V25H30.5V27H16.5ZM16.5 21V19H30.5V21H16.5ZM35.5 16V12H31.5V10H35.5V6H37.5V10H41.5V12H37.5V16H35.5Z" fill="#3A37C6"/>
<path d="M7.5 36.768H4.5L4.5 36.7723L7.5 36.768ZM10.73 8V5L10.7256 5L10.73 8ZM29.346 8H32.346V5H29.346V8ZM29.346 10V13H32.346V10H29.346ZM9.5 11.232H12.5L12.5 11.2191L9.5 11.232ZM10.73 38V35L10.717 35L10.73 38ZM37.5 36.77H34.5L34.5 36.783L37.5 36.77ZM37.5 18.154V15.154H34.5V18.154H37.5ZM39.5 18.154H42.5V15.154H39.5V18.154ZM36.268 40L36.2723 37H36.268V40ZM16.5 33H13.5V36H16.5V33ZM16.5 31V28H13.5V31H16.5ZM30.5 31H33.5V28H30.5V31ZM30.5 33V36H33.5V33H30.5ZM16.5 27H13.5V30H16.5V27ZM16.5 25V22H13.5V25H16.5ZM30.5 25H33.5V22H30.5V25ZM30.5 27V30H33.5V27H30.5ZM16.5 21H13.5V24H16.5V21ZM16.5 19V16H13.5V19H16.5ZM30.5 19H33.5V16H30.5V19ZM30.5 21V24H33.5V21H30.5ZM35.5 16H32.5V19H35.5V16ZM35.5 12H38.5V9H35.5V12ZM31.5 12H28.5V15H31.5V12ZM31.5 10V7H28.5V10H31.5ZM35.5 10V13H38.5V10H35.5ZM35.5 6V3H32.5V6H35.5ZM37.5 6H40.5V3H37.5V6ZM37.5 10H34.5V13H37.5V10ZM41.5 10H44.5V7H41.5V10ZM41.5 12V15H44.5V12H41.5ZM37.5 12V9H34.5V12H37.5ZM37.5 16V19H40.5V16H37.5ZM10.732 37C10.6691 37 10.629 36.9948 10.6075 36.9909C10.5966 36.9889 10.5895 36.9871 10.5856 36.9859C10.5837 36.9854 10.5823 36.9849 10.5815 36.9847C10.5807 36.9844 10.5803 36.9842 10.5803 36.9842C10.5803 36.9842 10.5804 36.9843 10.5805 36.9843C10.5806 36.9844 10.5808 36.9844 10.581 36.9845C10.5813 36.9847 10.5818 36.9849 10.5821 36.9851C10.5831 36.9856 10.583 36.9856 10.5818 36.9848C10.5802 36.9837 10.5684 36.9758 10.5473 36.9547L6.30468 41.1973C7.51829 42.4109 9.06592 43 10.732 43V37ZM10.5473 36.9547C10.5262 36.9336 10.5182 36.9217 10.5169 36.9198C10.516 36.9184 10.5159 36.9182 10.5163 36.9189C10.5166 36.9196 10.5168 36.9201 10.5168 36.9199C10.5167 36.9197 10.5159 36.9178 10.5147 36.9136C10.5135 36.9094 10.5116 36.9019 10.5095 36.8906C10.5054 36.8683 10.5001 36.8274 10.5 36.7637L4.5 36.7723C4.50241 38.437 5.09133 39.984 6.30468 41.1973L10.5473 36.9547ZM10.5 36.768V11.232H4.5V36.768H10.5ZM10.5 11.232C10.5 11.1114 10.519 11.0735 10.5154 11.0824C10.5147 11.0841 10.5137 11.0856 10.5146 11.0843C10.5157 11.0827 10.5237 11.0709 10.545 11.0496L6.30697 6.80239C5.0912 8.01554 4.5 9.56389 4.5 11.232H10.5ZM10.545 11.0496C10.5672 11.0275 10.58 11.0187 10.5827 11.0169C10.5844 11.0157 10.585 11.0155 10.5845 11.0157C10.584 11.016 10.5836 11.0162 10.5838 11.0161C10.5839 11.016 10.5857 11.0153 10.5897 11.0142C10.5936 11.013 10.6008 11.0112 10.6115 11.0092C10.6328 11.0053 10.6724 11.0001 10.7344 11L10.7256 5C9.06101 5.00242 7.51811 5.59387 6.30697 6.80239L10.545 11.0496ZM10.73 11H29.346V5H10.73V11ZM26.346 8V10H32.346V8H26.346ZM29.346 7H10.732V13H29.346V7ZM10.732 7C9.49079 7 8.47975 7.54931 7.7682 8.25718L11.9998 12.5108C11.9166 12.5936 11.7621 12.7222 11.5265 12.8289C11.282 12.9396 11.0081 13 10.732 13V7ZM7.7682 8.25718C7.04832 8.97332 6.49464 9.99392 6.50003 11.2449L12.5 11.2191C12.5012 11.497 12.4412 11.7753 12.3279 12.0255C12.2187 12.2667 12.086 12.425 11.9998 12.5108L7.7682 8.25718ZM6.5 11.232V36.77H12.5V11.232H6.5ZM6.5 36.77C6.5 38.0134 7.05224 39.0232 7.75718 39.7318L12.0108 35.5002C12.0925 35.5823 12.2209 35.7361 12.3278 35.9716C12.4387 36.2161 12.5 36.4913 12.5 36.77H6.5ZM7.75718 39.7318C8.47037 40.4487 9.48972 41.0054 10.743 41L10.717 35C10.9975 34.9988 11.2772 35.0597 11.5274 35.1732C11.7684 35.2826 11.9261 35.415 12.0108 35.5002L7.75718 39.7318ZM10.73 41H36.27V35H10.73V41ZM36.27 41C37.5134 41 38.5232 40.4478 39.2318 39.7428L35.0002 35.4892C35.0823 35.4075 35.2361 35.2791 35.4716 35.1722C35.7161 35.0613 35.9913 35 36.27 35V41ZM39.2318 39.7428C39.9487 39.0296 40.5054 38.0103 40.5 36.757L34.5 36.783C34.4988 36.5025 34.5597 36.2228 34.6732 35.9726C34.7826 35.7316 34.915 35.5739 35.0002 35.4892L39.2318 39.7428ZM40.5 36.77V18.154H34.5V36.77H40.5ZM37.5 21.154H39.5V15.154H37.5V21.154ZM36.5 18.154V36.77H42.5V18.154H36.5ZM36.5 36.77C36.5 36.8323 36.4948 36.872 36.4909 36.8933C36.489 36.9041 36.4872 36.9112 36.486 36.9151C36.4849 36.919 36.4842 36.9207 36.4842 36.9207C36.4842 36.9207 36.4843 36.9206 36.4844 36.9203C36.4845 36.92 36.4847 36.9197 36.4848 36.9194C36.4852 36.9187 36.4851 36.919 36.4841 36.9205C36.4826 36.9228 36.4741 36.9352 36.4524 36.957L40.6996 41.195C41.9102 39.9819 42.5 38.436 42.5 36.77H36.5ZM36.4524 36.957C36.4315 36.9779 36.4201 36.9855 36.4189 36.9863C36.4181 36.9869 36.42 36.9857 36.422 36.9849C36.4315 36.9811 36.3937 37.0002 36.2723 37L36.2637 43C37.9332 43.0024 39.4844 42.4128 40.6996 41.195L36.4524 36.957ZM36.268 37H10.732V43H36.268V37ZM19.5 33V31H13.5V33H19.5ZM16.5 34H30.5V28H16.5V34ZM27.5 31V33H33.5V31H27.5ZM30.5 30H16.5V36H30.5V30ZM19.5 27V25H13.5V27H19.5ZM16.5 28H30.5V22H16.5V28ZM27.5 25V27H33.5V25H27.5ZM30.5 24H16.5V30H30.5V24ZM19.5 21V19H13.5V21H19.5ZM16.5 22H30.5V16H16.5V22ZM27.5 19V21H33.5V19H27.5ZM30.5 18H16.5V24H30.5V18ZM38.5 16V12H32.5V16H38.5ZM35.5 9H31.5V15H35.5V9ZM34.5 12V10H28.5V12H34.5ZM31.5 13H35.5V7H31.5V13ZM38.5 10V6H32.5V10H38.5ZM35.5 9H37.5V3H35.5V9ZM34.5 6V10H40.5V6H34.5ZM37.5 13H41.5V7H37.5V13ZM38.5 10V12H44.5V10H38.5ZM41.5 9H37.5V15H41.5V9ZM34.5 12V16H40.5V12H34.5ZM37.5 13H35.5V19H37.5V13Z" fill="#3A37C6" mask="url(#path-1-inside-1_54_319)"/>
</svg>
