<svg width="25" height="25" viewBox="0 0 25 25" fill="none" xmlns="http://www.w3.org/2000/svg">
<mask id="path-1-inside-1_44_176" fill="white">
<path d="M2.90698 3.86633V3.14685C2.71616 3.14685 2.53316 3.22265 2.39823 3.35758C2.2633 3.49251 2.1875 3.67551 2.1875 3.86633H2.90698ZM13.4593 3.86633H14.1788C14.1788 3.67551 14.103 3.49251 13.968 3.35758C13.8331 3.22265 13.6501 3.14685 13.4593 3.14685V3.86633ZM13.4593 9.62214V8.90266C13.2685 8.90266 13.0855 8.97847 12.9506 9.11339C12.8156 9.24832 12.7398 9.43132 12.7398 9.62214H13.4593ZM2.90698 4.5858H13.4593V3.14685H2.90698V4.5858ZM12.7398 3.86633V19.2152H14.1788V3.86633H12.7398ZM3.62645 17.2966V3.86633H2.1875V17.2966H3.62645ZM13.4593 10.3416H18.2558V8.90266H13.4593V10.3416ZM21.3735 13.4594V17.2966H22.8125V13.4594H21.3735ZM14.1788 19.2152V9.62214H12.7398V19.2152H14.1788ZM19.1038 20.0632C18.9925 20.1746 18.8603 20.2629 18.7148 20.3232C18.5693 20.3835 18.4133 20.4145 18.2558 20.4145C18.0983 20.4145 17.9424 20.3835 17.7969 20.3232C17.6513 20.2629 17.5191 20.1746 17.4078 20.0632L16.3909 21.08C16.8857 21.5748 17.5567 21.8527 18.2563 21.8527C18.9559 21.8527 19.6269 21.5748 20.1217 21.08L19.1038 20.0632ZM17.4078 18.3671C17.5191 18.2558 17.6513 18.1674 17.7969 18.1071C17.9424 18.0468 18.0983 18.0158 18.2558 18.0158C18.4133 18.0158 18.5693 18.0468 18.7148 18.1071C18.8603 18.1674 18.9925 18.2558 19.1038 18.3671L20.1207 17.3503C19.626 16.8556 18.955 16.5776 18.2553 16.5776C17.5557 16.5776 16.8847 16.8556 16.39 17.3503L17.4078 18.3671ZM7.59221 20.0632C7.48086 20.1746 7.34865 20.2629 7.20315 20.3232C7.05764 20.3835 6.90168 20.4145 6.74419 20.4145C6.58669 20.4145 6.43073 20.3835 6.28523 20.3232C6.13972 20.2629 6.00752 20.1746 5.89616 20.0632L4.8793 21.08C5.37404 21.5748 6.04502 21.8527 6.74467 21.8527C7.44431 21.8527 8.1153 21.5748 8.61003 21.08L7.59221 20.0632ZM5.89616 18.3671C6.00752 18.2558 6.13972 18.1674 6.28523 18.1071C6.43073 18.0468 6.58669 18.0158 6.74419 18.0158C6.90168 18.0158 7.05764 18.0468 7.20315 18.1071C7.34865 18.1674 7.48086 18.2558 7.59221 18.3671L8.60907 17.3503C8.11434 16.8556 7.44335 16.5776 6.74371 16.5776C6.04406 16.5776 5.37308 16.8556 4.87834 17.3503L5.89616 18.3671ZM19.1038 18.3671C19.3379 18.6012 19.4549 18.9072 19.4549 19.2152H20.8939C20.8939 18.5408 20.6358 17.8645 20.1217 17.3493L19.1038 18.3671ZM19.4549 19.2152C19.4549 19.5231 19.3379 19.8291 19.1038 20.0632L20.1217 21.08C20.3671 20.8355 20.5608 20.5448 20.6935 20.2248C20.8262 19.9048 20.8943 19.5616 20.8939 19.2152H19.4549ZM16.3372 18.4957H13.4593V19.9346H16.3372V18.4957ZM17.4078 20.0632C17.296 19.9521 17.2074 19.82 17.1472 19.6744C17.0869 19.5288 17.0561 19.3727 17.0567 19.2152H15.6177C15.6177 19.8896 15.8758 20.5659 16.39 21.081L17.4078 20.0632ZM17.0567 19.2152C17.0567 18.9072 17.1737 18.6012 17.4078 18.3671L16.39 17.3503C16.1445 17.5948 15.9508 17.8855 15.8182 18.2055C15.6855 18.5256 15.6173 18.8687 15.6177 19.2152H17.0567ZM5.89616 20.0632C5.78439 19.9521 5.6958 19.82 5.63553 19.6744C5.57525 19.5288 5.5445 19.3727 5.54506 19.2152H4.1061C4.1061 19.8896 4.36416 20.5659 4.87834 21.081L5.89616 20.0632ZM5.54506 19.2152C5.54506 18.9072 5.66209 18.6012 5.89616 18.3671L4.8793 17.3503C4.63388 17.5948 4.43922 17.8855 4.30652 18.2055C4.17383 18.5256 4.10572 18.8687 4.1061 19.2152H5.54506ZM13.4593 18.4957H8.66279V19.9346H13.4593V18.4957ZM7.59221 18.3671C7.82628 18.6012 7.94331 18.9072 7.94331 19.2152H9.38227C9.38227 18.5408 9.12422 17.8645 8.61003 17.3493L7.59221 18.3671ZM7.94331 19.2152C7.94331 19.5231 7.82628 19.8291 7.59221 20.0632L8.60907 21.08C8.8545 20.8355 9.04915 20.5448 9.18185 20.2248C9.31454 19.9048 9.38265 19.5616 9.38227 19.2152H7.94331ZM21.3735 17.2966C21.3735 17.9585 20.8363 18.4957 20.1744 18.4957V19.9346C20.8741 19.9346 21.5451 19.6567 22.0398 19.162C22.5346 18.6672 22.8125 17.9962 22.8125 17.2966H21.3735ZM18.2558 10.3416C19.0827 10.3416 19.8757 10.6701 20.4604 11.2548C21.0451 11.8395 21.3735 12.6325 21.3735 13.4594H22.8125C22.8125 12.2508 22.3324 11.0918 21.4779 10.2373C20.6233 9.38274 19.4643 8.90266 18.2558 8.90266V10.3416ZM2.1875 17.2966C2.1875 17.9962 2.46544 18.6672 2.96018 19.162C3.45491 19.6567 4.12592 19.9346 4.82558 19.9346V18.4957C4.16366 18.4957 3.62645 17.9585 3.62645 17.2966H2.1875Z"/>
</mask>
<path d="M2.90698 3.86633V3.14685C2.71616 3.14685 2.53316 3.22265 2.39823 3.35758C2.2633 3.49251 2.1875 3.67551 2.1875 3.86633H2.90698ZM13.4593 3.86633H14.1788C14.1788 3.67551 14.103 3.49251 13.968 3.35758C13.8331 3.22265 13.6501 3.14685 13.4593 3.14685V3.86633ZM13.4593 9.62214V8.90266C13.2685 8.90266 13.0855 8.97847 12.9506 9.11339C12.8156 9.24832 12.7398 9.43132 12.7398 9.62214H13.4593ZM2.90698 4.5858H13.4593V3.14685H2.90698V4.5858ZM12.7398 3.86633V19.2152H14.1788V3.86633H12.7398ZM3.62645 17.2966V3.86633H2.1875V17.2966H3.62645ZM13.4593 10.3416H18.2558V8.90266H13.4593V10.3416ZM21.3735 13.4594V17.2966H22.8125V13.4594H21.3735ZM14.1788 19.2152V9.62214H12.7398V19.2152H14.1788ZM19.1038 20.0632C18.9925 20.1746 18.8603 20.2629 18.7148 20.3232C18.5693 20.3835 18.4133 20.4145 18.2558 20.4145C18.0983 20.4145 17.9424 20.3835 17.7969 20.3232C17.6513 20.2629 17.5191 20.1746 17.4078 20.0632L16.3909 21.08C16.8857 21.5748 17.5567 21.8527 18.2563 21.8527C18.9559 21.8527 19.6269 21.5748 20.1217 21.08L19.1038 20.0632ZM17.4078 18.3671C17.5191 18.2558 17.6513 18.1674 17.7969 18.1071C17.9424 18.0468 18.0983 18.0158 18.2558 18.0158C18.4133 18.0158 18.5693 18.0468 18.7148 18.1071C18.8603 18.1674 18.9925 18.2558 19.1038 18.3671L20.1207 17.3503C19.626 16.8556 18.955 16.5776 18.2553 16.5776C17.5557 16.5776 16.8847 16.8556 16.39 17.3503L17.4078 18.3671ZM7.59221 20.0632C7.48086 20.1746 7.34865 20.2629 7.20315 20.3232C7.05764 20.3835 6.90168 20.4145 6.74419 20.4145C6.58669 20.4145 6.43073 20.3835 6.28523 20.3232C6.13972 20.2629 6.00752 20.1746 5.89616 20.0632L4.8793 21.08C5.37404 21.5748 6.04502 21.8527 6.74467 21.8527C7.44431 21.8527 8.1153 21.5748 8.61003 21.08L7.59221 20.0632ZM5.89616 18.3671C6.00752 18.2558 6.13972 18.1674 6.28523 18.1071C6.43073 18.0468 6.58669 18.0158 6.74419 18.0158C6.90168 18.0158 7.05764 18.0468 7.20315 18.1071C7.34865 18.1674 7.48086 18.2558 7.59221 18.3671L8.60907 17.3503C8.11434 16.8556 7.44335 16.5776 6.74371 16.5776C6.04406 16.5776 5.37308 16.8556 4.87834 17.3503L5.89616 18.3671ZM19.1038 18.3671C19.3379 18.6012 19.4549 18.9072 19.4549 19.2152H20.8939C20.8939 18.5408 20.6358 17.8645 20.1217 17.3493L19.1038 18.3671ZM19.4549 19.2152C19.4549 19.5231 19.3379 19.8291 19.1038 20.0632L20.1217 21.08C20.3671 20.8355 20.5608 20.5448 20.6935 20.2248C20.8262 19.9048 20.8943 19.5616 20.8939 19.2152H19.4549ZM16.3372 18.4957H13.4593V19.9346H16.3372V18.4957ZM17.4078 20.0632C17.296 19.9521 17.2074 19.82 17.1472 19.6744C17.0869 19.5288 17.0561 19.3727 17.0567 19.2152H15.6177C15.6177 19.8896 15.8758 20.5659 16.39 21.081L17.4078 20.0632ZM17.0567 19.2152C17.0567 18.9072 17.1737 18.6012 17.4078 18.3671L16.39 17.3503C16.1445 17.5948 15.9508 17.8855 15.8182 18.2055C15.6855 18.5256 15.6173 18.8687 15.6177 19.2152H17.0567ZM5.89616 20.0632C5.78439 19.9521 5.6958 19.82 5.63553 19.6744C5.57525 19.5288 5.5445 19.3727 5.54506 19.2152H4.1061C4.1061 19.8896 4.36416 20.5659 4.87834 21.081L5.89616 20.0632ZM5.54506 19.2152C5.54506 18.9072 5.66209 18.6012 5.89616 18.3671L4.8793 17.3503C4.63388 17.5948 4.43922 17.8855 4.30652 18.2055C4.17383 18.5256 4.10572 18.8687 4.1061 19.2152H5.54506ZM13.4593 18.4957H8.66279V19.9346H13.4593V18.4957ZM7.59221 18.3671C7.82628 18.6012 7.94331 18.9072 7.94331 19.2152H9.38227C9.38227 18.5408 9.12422 17.8645 8.61003 17.3493L7.59221 18.3671ZM7.94331 19.2152C7.94331 19.5231 7.82628 19.8291 7.59221 20.0632L8.60907 21.08C8.8545 20.8355 9.04915 20.5448 9.18185 20.2248C9.31454 19.9048 9.38265 19.5616 9.38227 19.2152H7.94331ZM21.3735 17.2966C21.3735 17.9585 20.8363 18.4957 20.1744 18.4957V19.9346C20.8741 19.9346 21.5451 19.6567 22.0398 19.162C22.5346 18.6672 22.8125 17.9962 22.8125 17.2966H21.3735ZM18.2558 10.3416C19.0827 10.3416 19.8757 10.6701 20.4604 11.2548C21.0451 11.8395 21.3735 12.6325 21.3735 13.4594H22.8125C22.8125 12.2508 22.3324 11.0918 21.4779 10.2373C20.6233 9.38274 19.4643 8.90266 18.2558 8.90266V10.3416ZM2.1875 17.2966C2.1875 17.9962 2.46544 18.6672 2.96018 19.162C3.45491 19.6567 4.12592 19.9346 4.82558 19.9346V18.4957C4.16366 18.4957 3.62645 17.9585 3.62645 17.2966H2.1875Z" fill="#3A37C6"/>
<path d="M12.7398 20.7152H14.1788V17.7152H12.7398V20.7152ZM2.1875 18.7966H3.62645V15.7966H2.1875V18.7966ZM19.7558 10.3416V8.90266H16.7558V10.3416H19.7558ZM21.3735 18.7966H22.8125V15.7966H21.3735V18.7966ZM22.8125 11.9594H21.3735V14.9594H22.8125V11.9594ZM21.1818 20.0189L20.164 19.002L18.0437 21.1243L19.0615 22.1412L21.1818 20.0189ZM15.3298 18.4114L16.3476 19.4283L18.468 17.306L17.4501 16.2891L15.3298 18.4114ZM19.4549 20.7152H20.8939V17.7152H19.4549V20.7152ZM11.9593 18.4957V19.9346H14.9593V18.4957H11.9593ZM17.0567 17.7152H15.6177V20.7152H17.0567V17.7152ZM5.54506 17.7152H4.1061V20.7152H5.54506V17.7152ZM7.94331 20.7152H9.38227V17.7152H7.94331V20.7152ZM2.90698 3.86633V6.86633H5.90698V3.86633H2.90698ZM13.4593 3.86633H10.4593V6.86633H13.4593V3.86633ZM13.4593 9.62214V12.6221H16.4593V9.62214H13.4593ZM2.90698 4.5858H-0.0930233V7.5858H2.90698V4.5858ZM13.4593 4.5858V7.5858H16.4593V4.5858H13.4593ZM12.7398 3.86633V0.866327H9.73983V3.86633H12.7398ZM3.62645 3.86633H6.62645V0.866327H3.62645V3.86633ZM2.1875 17.2966H-0.8125H2.1875ZM13.4593 10.3416H10.4593V13.3416H13.4593V10.3416ZM18.2558 8.90266V5.90266V8.90266ZM14.1788 9.62214H17.1788V6.62214H14.1788V9.62214ZM19.1038 20.0632L16.9825 17.9419L16.9822 17.9421L19.1038 20.0632ZM17.4078 20.0632L19.5294 17.9421L19.5223 17.9351L17.4078 20.0632ZM16.3909 21.08L14.2696 18.9587L12.1482 21.0801L14.2697 23.2014L16.3909 21.08ZM18.2563 21.8527V24.8527V21.8527ZM20.1217 21.08L18.0041 18.9549L18.0004 18.9587L20.1217 21.08ZM17.4078 18.3671L19.5291 20.4885L19.5294 20.4882L17.4078 18.3671ZM19.1038 18.3671L16.9822 20.4882L16.9825 20.4885L19.1038 18.3671ZM20.1207 17.3503L22.242 19.4716L24.3634 17.3502L22.242 15.2289L20.1207 17.3503ZM18.2553 16.5776V13.5776V16.5776ZM16.39 17.3503L18.5075 19.4754L18.5112 19.4716L16.39 17.3503ZM7.59221 20.0632L5.47089 17.9419L5.47061 17.9421L7.59221 20.0632ZM5.89616 20.0632L8.01777 17.9421L8.01066 17.9351L5.89616 20.0632ZM4.8793 21.08L2.75798 18.9587L0.636614 21.0801L2.75803 23.2014L4.8793 21.08ZM6.74467 21.8527V24.8527V21.8527ZM8.61003 21.08L10.7313 23.2014L12.8537 21.0791L10.7303 18.9577L8.61003 21.08ZM5.89616 18.3671L8.01748 20.4885L8.01776 20.4882L5.89616 18.3671ZM7.59221 18.3671L5.47061 20.4882L5.47089 20.4885L7.59221 18.3671ZM8.60907 17.3503L10.7304 19.4716L12.8518 17.3502L10.7303 15.2289L8.60907 17.3503ZM6.74371 16.5776V13.5776V16.5776ZM4.87834 17.3503L2.75707 15.2289L0.634653 17.3512L2.75802 19.4726L4.87834 17.3503ZM20.8939 19.2152H17.8939L17.8939 19.2185L20.8939 19.2152ZM20.1217 17.3493L22.245 15.23L20.1236 13.1047L18.0003 15.228L20.1217 17.3493ZM16.3372 18.4957H19.3372V15.4957H16.3372V18.4957ZM16.3372 19.9346V22.9346H19.3372V19.9346H16.3372ZM17.0567 19.2152L20.0567 19.2258V19.2152H17.0567ZM15.6177 19.2152H18.6177L18.6177 19.2118L15.6177 19.2152ZM16.39 21.081L14.2667 23.2003L16.388 25.3256L18.5113 23.2023L16.39 21.081ZM5.54506 19.2152L8.54506 19.2258V19.2152H5.54506ZM4.1061 19.2152H7.10611L7.1061 19.2118L4.1061 19.2152ZM4.87834 21.081L2.75505 23.2003L4.87636 25.3256L6.99966 23.2023L4.87834 21.081ZM4.8793 17.3503L7.00062 15.229L4.8831 13.1114L2.76179 15.2252L4.8793 17.3503ZM8.66279 18.4957V15.4957H5.66279V18.4957H8.66279ZM8.66279 19.9346H5.66279V22.9346H8.66279V19.9346ZM9.38227 19.2152H6.38227L6.38227 19.2185L9.38227 19.2152ZM8.61003 17.3493L10.7333 15.23L8.61201 13.1047L6.48871 15.228L8.61003 17.3493ZM8.60907 21.08L6.48775 23.2014L8.60527 25.3189L10.7266 23.2052L8.60907 21.08ZM20.1744 18.4957V15.4957H17.1744V18.4957H20.1744ZM20.1744 19.9346H17.1744V22.9346H20.1744V19.9346ZM4.82558 19.9346V22.9346H7.82558V19.9346H4.82558ZM4.82558 18.4957H7.82558V15.4957H4.82558V18.4957ZM5.90698 3.86633V3.14685H-0.0930233V3.86633H5.90698ZM2.90698 0.146851C1.92051 0.146851 0.974447 0.538722 0.27691 1.23626L4.51955 5.4789C4.09187 5.90658 3.51181 6.14685 2.90698 6.14685V0.146851ZM0.27691 1.23626C-0.420628 1.9338 -0.8125 2.87986 -0.8125 3.86633H5.1875C5.1875 4.47116 4.94723 5.05122 4.51955 5.4789L0.27691 1.23626ZM2.1875 6.86633H2.90698V0.866327H2.1875V6.86633ZM13.4593 6.86633H14.1788V0.866327H13.4593V6.86633ZM17.1788 3.86633C17.1788 2.87986 16.7869 1.93379 16.0894 1.23626L11.8467 5.4789C11.419 5.05122 11.1788 4.47116 11.1788 3.86633H17.1788ZM16.0894 1.23626C15.3918 0.538723 14.4458 0.146851 13.4593 0.146851V6.14685C12.8545 6.14685 12.2744 5.90658 11.8467 5.4789L16.0894 1.23626ZM10.4593 3.14685V3.86633H16.4593V3.14685H10.4593ZM16.4593 9.62214V8.90266H10.4593V9.62214H16.4593ZM13.4593 5.90266C12.4728 5.90266 11.5268 6.29454 10.8292 6.99207L15.0719 11.2347C14.6442 11.6624 14.0641 11.9027 13.4593 11.9027V5.90266ZM10.8292 6.99207C10.1317 7.68961 9.73983 8.63567 9.73983 9.62214H15.7398C15.7398 10.227 15.4996 10.807 15.0719 11.2347L10.8292 6.99207ZM12.7398 12.6221H13.4593V6.62214H12.7398V12.6221ZM2.90698 7.5858H13.4593V1.5858H2.90698V7.5858ZM16.4593 4.5858V3.14685H10.4593V4.5858H16.4593ZM13.4593 0.146851H2.90698V6.14685H13.4593V0.146851ZM-0.0930233 3.14685V4.5858H5.90698V3.14685H-0.0930233ZM9.73983 3.86633V19.2152H15.7398V3.86633H9.73983ZM17.1788 19.2152V3.86633H11.1788V19.2152H17.1788ZM14.1788 0.866327H12.7398V6.86633H14.1788V0.866327ZM6.62645 17.2966V3.86633H0.626453V17.2966H6.62645ZM3.62645 0.866327H2.1875V6.86633H3.62645V0.866327ZM-0.8125 3.86633V17.2966H5.1875V3.86633H-0.8125ZM13.4593 13.3416H18.2558V7.34162H13.4593V13.3416ZM18.2558 5.90266H13.4593V11.9027H18.2558V5.90266ZM10.4593 8.90266V10.3416H16.4593V8.90266H10.4593ZM18.3735 13.4594V17.2966H24.3735V13.4594H18.3735ZM25.8125 17.2966V13.4594H19.8125V17.2966H25.8125ZM17.1788 19.2152V9.62214H11.1788V19.2152H17.1788ZM14.1788 6.62214H12.7398V12.6221H14.1788V6.62214ZM9.73983 9.62214V19.2152H15.7398V9.62214H9.73983ZM16.9822 17.9421C17.1495 17.7749 17.348 17.6422 17.5665 17.5516L19.863 23.0948C20.3725 22.8837 20.8355 22.5743 21.2254 22.1842L16.9822 17.9421ZM17.5665 17.5516C17.7851 17.4611 18.0193 17.4145 18.2558 17.4145V23.4145C18.8074 23.4145 19.3535 23.3059 19.863 23.0948L17.5665 17.5516ZM18.2558 17.4145C18.4924 17.4145 18.7266 17.4611 18.9451 17.5516L16.6486 23.0948C17.1582 23.3059 17.7043 23.4145 18.2558 23.4145V17.4145ZM18.9451 17.5516C19.1636 17.6422 19.3621 17.7749 19.5294 17.9421L15.2862 22.1842C15.6761 22.5743 16.1391 22.8837 16.6486 23.0948L18.9451 17.5516ZM15.2865 17.9419L14.2696 18.9587L18.5123 23.2014L19.5291 22.1845L15.2865 17.9419ZM14.2697 23.2014C15.327 24.2587 16.761 24.8527 18.2563 24.8527V18.8527C18.3523 18.8527 18.4443 18.8908 18.5122 18.9587L14.2697 23.2014ZM18.2563 24.8527C19.7516 24.8527 21.1856 24.2587 22.2429 23.2014L18.0004 18.9587C18.0683 18.8908 18.1603 18.8527 18.2563 18.8527V24.8527ZM19.5294 20.4882C19.3621 20.6555 19.1636 20.7882 18.9451 20.8787L16.6486 15.3356C16.1391 15.5466 15.6761 15.856 15.2862 16.2461L19.5294 20.4882ZM18.9451 20.8787C18.7266 20.9692 18.4924 21.0158 18.2558 21.0158V15.0158C17.7043 15.0158 17.1582 15.1245 16.6486 15.3356L18.9451 20.8787ZM18.2558 21.0158C18.0193 21.0158 17.7851 20.9692 17.5665 20.8787L19.863 15.3356C19.3535 15.1245 18.8074 15.0158 18.2558 15.0158V21.0158ZM17.5665 20.8787C17.348 20.7882 17.1495 20.6555 16.9822 20.4882L21.2254 16.2461C20.8355 15.856 20.3725 15.5466 19.863 15.3356L17.5665 20.8787ZM21.2252 20.4885L22.242 19.4716L17.9994 15.229L16.9825 16.2458L21.2252 20.4885ZM22.242 15.2289C21.1846 14.1716 19.7506 13.5776 18.2553 13.5776V19.5776C18.1594 19.5776 18.0673 19.5395 17.9994 19.4716L22.242 15.2289ZM18.2553 13.5776C16.7601 13.5776 15.326 14.1716 14.2687 15.2289L18.5112 19.4716C18.4434 19.5395 18.3513 19.5776 18.2553 19.5776V13.5776ZM5.47061 17.9421C5.63785 17.7749 5.8364 17.6422 6.05491 17.5516L8.35138 23.0948C8.8609 22.8837 9.32386 22.5743 9.71381 22.1842L5.47061 17.9421ZM6.05491 17.5516C6.27343 17.4611 6.50765 17.4145 6.74419 17.4145V23.4145C7.29572 23.4145 7.84185 23.3059 8.35138 23.0948L6.05491 17.5516ZM6.74419 17.4145C6.98072 17.4145 7.21494 17.4611 7.43346 17.5516L5.13699 23.0948C5.64652 23.3059 6.19265 23.4145 6.74419 23.4145V17.4145ZM7.43346 17.5516C7.65197 17.6422 7.85052 17.7749 8.01776 17.9421L3.77456 22.1842C4.16451 22.5743 4.62747 22.8837 5.13699 23.0948L7.43346 17.5516ZM3.77484 17.9419L2.75798 18.9587L7.00062 23.2014L8.01748 22.1845L3.77484 17.9419ZM2.75803 23.2014C3.81537 24.2587 5.2494 24.8527 6.74467 24.8527V18.8527C6.84065 18.8527 6.9327 18.8908 7.00058 18.9587L2.75803 23.2014ZM6.74467 24.8527C8.23993 24.8527 9.67396 24.2587 10.7313 23.2014L6.48876 18.9587C6.55663 18.8908 6.64868 18.8527 6.74467 18.8527V24.8527ZM10.7303 18.9577L9.71253 17.9409L5.47189 22.1855L6.48971 23.2024L10.7303 18.9577ZM8.01776 20.4882C7.85052 20.6555 7.65197 20.7882 7.43346 20.8787L5.13699 15.3356C4.62747 15.5466 4.16451 15.856 3.77456 16.2461L8.01776 20.4882ZM7.43346 20.8787C7.21494 20.9692 6.98072 21.0158 6.74419 21.0158V15.0158C6.19265 15.0158 5.64652 15.1245 5.13699 15.3356L7.43346 20.8787ZM6.74419 21.0158C6.50765 21.0158 6.27343 20.9692 6.05491 20.8787L8.35138 15.3356C7.84185 15.1245 7.29572 15.0158 6.74419 15.0158V21.0158ZM6.05491 20.8787C5.8364 20.7882 5.63785 20.6555 5.47061 20.4882L9.71381 16.2461C9.32386 15.856 8.8609 15.5466 8.35138 15.3356L6.05491 20.8787ZM9.71353 20.4885L10.7304 19.4716L6.48775 15.229L5.47089 16.2458L9.71353 20.4885ZM10.7303 15.2289C9.673 14.1716 8.23897 13.5776 6.74371 13.5776V19.5776C6.64772 19.5776 6.55567 19.5395 6.4878 19.4716L10.7303 15.2289ZM6.74371 13.5776C5.24844 13.5776 3.81441 14.1716 2.75707 15.2289L6.99962 19.4716C6.93174 19.5395 6.83969 19.5776 6.74371 19.5776V13.5776ZM2.75802 19.4726L3.77584 20.4895L8.01648 16.2448L6.99866 15.228L2.75802 19.4726ZM16.9825 20.4885C16.6317 20.1377 16.4549 19.6709 16.4549 19.2152H22.4549C22.4549 18.1436 22.0441 17.0647 21.2252 16.2458L16.9825 20.4885ZM23.8939 19.2152C23.8939 17.7774 23.3423 16.3294 22.245 15.23L17.9984 19.4687C17.9294 19.3996 17.8939 19.3041 17.8939 19.2152H23.8939ZM18.0003 15.228L16.9825 16.2458L21.2252 20.4885L22.243 19.4706L18.0003 15.228ZM16.4549 19.2152C16.4549 18.7595 16.6317 18.2927 16.9825 17.9419L21.2252 22.1845C22.0441 21.3656 22.4549 20.2867 22.4549 19.2152H16.4549ZM22.2392 23.2052C22.7681 22.6782 23.1824 22.0547 23.4647 21.3738L17.9222 19.0758C17.9392 19.035 17.9661 18.9928 18.0041 18.9549L22.2392 23.2052ZM23.4647 21.3738C23.7489 20.6885 23.8947 19.9537 23.8939 19.2118L17.8939 19.2185C17.8938 19.1695 17.9035 19.121 17.9222 19.0758L23.4647 21.3738ZM16.3372 15.4957H13.4593V21.4957H16.3372V15.4957ZM13.4593 22.9346H16.3372V16.9346H13.4593V22.9346ZM19.3372 19.9346V18.4957H13.3372V19.9346H19.3372ZM19.5223 17.9351C19.6924 18.1041 19.8272 18.3052 19.919 18.5268L14.3753 20.822C14.5876 21.3347 14.8996 21.8002 15.2933 22.1913L19.5223 17.9351ZM19.919 18.5268C20.0107 18.7484 20.0575 18.9859 20.0567 19.2258L14.0567 19.2046C14.0547 19.7595 14.1631 20.3093 14.3753 20.822L19.919 18.5268ZM12.6177 19.2152C12.6177 20.6529 13.1693 22.1009 14.2667 23.2003L18.5133 18.9617C18.5822 19.0308 18.6177 19.1262 18.6177 19.2152H12.6177ZM18.5113 23.2023L19.5291 22.1845L15.2865 17.9419L14.2687 18.9597L18.5113 23.2023ZM20.0567 19.2152C20.0567 19.6709 19.8799 20.1377 19.5291 20.4885L15.2865 16.2458C14.4675 17.0647 14.0567 18.1436 14.0567 19.2152H20.0567ZM14.2725 15.2252C13.7436 15.7521 13.3292 16.3756 13.0469 17.0565L18.5894 19.3545C18.5725 19.3954 18.5455 19.4375 18.5075 19.4754L14.2725 15.2252ZM13.0469 17.0565C12.7628 17.7419 12.6169 18.4766 12.6177 19.2185L18.6177 19.2118C18.6178 19.2608 18.6082 19.3093 18.5894 19.3545L13.0469 17.0565ZM8.01066 17.9351C8.18078 18.1041 8.31561 18.3052 8.40735 18.5268L2.8637 20.822C3.07599 21.3347 3.38801 21.8002 3.78167 22.1913L8.01066 17.9351ZM8.40735 18.5268C8.49908 18.7484 8.54589 18.9859 8.54504 19.2258L2.54508 19.2046C2.54312 19.7595 2.65142 20.3093 2.8637 20.822L8.40735 18.5268ZM1.1061 19.2152C1.1061 20.6529 1.65769 22.1009 2.75505 23.2003L7.00164 18.9617C7.07062 19.0308 7.1061 19.1262 7.1061 19.2152H1.1061ZM6.99966 23.2023L8.01748 22.1845L3.77484 17.9419L2.75702 18.9597L6.99966 23.2023ZM8.54506 19.2152C8.54506 19.6709 8.36826 20.1377 8.01748 20.4885L3.77484 16.2458C2.95592 17.0647 2.54506 18.1436 2.54506 19.2152H8.54506ZM8.01748 16.2458L7.00062 15.229L2.75798 19.4716L3.77484 20.4885L8.01748 16.2458ZM2.76179 15.2252C2.23624 15.7488 1.81942 16.3712 1.53527 17.0565L7.07778 19.3545C7.05902 19.3998 7.03151 19.4408 6.99682 19.4754L2.76179 15.2252ZM1.53527 17.0565C1.25113 17.7419 1.10528 18.4766 1.10611 19.2185L7.1061 19.2118C7.10616 19.2608 7.09653 19.3093 7.07778 19.3545L1.53527 17.0565ZM13.4593 15.4957H8.66279V21.4957H13.4593V15.4957ZM5.66279 18.4957V19.9346H11.6628V18.4957H5.66279ZM8.66279 22.9346H13.4593V16.9346H8.66279V22.9346ZM5.47089 20.4885C5.12011 20.1377 4.94331 19.6709 4.94331 19.2152H10.9433C10.9433 18.1436 10.5324 17.0647 9.71353 16.2458L5.47089 20.4885ZM12.3823 19.2152C12.3823 17.7774 11.8307 16.3294 10.7333 15.23L6.48673 19.4687C6.41775 19.3996 6.38227 19.3041 6.38227 19.2152H12.3823ZM6.48871 15.228L5.47089 16.2458L9.71353 20.4885L10.7313 19.4706L6.48871 15.228ZM4.94331 19.2152C4.94331 18.7595 5.12011 18.2926 5.47089 17.9419L9.71353 22.1845C10.5324 21.3656 10.9433 20.2867 10.9433 19.2152H4.94331ZM5.47089 22.1845L6.48775 23.2014L10.7304 18.9587L9.71353 17.9419L5.47089 22.1845ZM10.7266 23.2052C11.2521 22.6815 11.669 22.0591 11.9531 21.3738L6.4106 19.0758C6.42935 19.0306 6.45686 18.9895 6.49155 18.9549L10.7266 23.2052ZM11.9531 21.3738C12.2372 20.6885 12.3831 19.9537 12.3823 19.2118L6.38227 19.2185C6.38221 19.1695 6.39184 19.121 6.4106 19.0758L11.9531 21.3738ZM18.3735 17.2966C18.3735 16.3016 19.1795 15.4957 20.1744 15.4957V21.4957C22.4932 21.4957 24.3735 19.6153 24.3735 17.2966H18.3735ZM17.1744 18.4957V19.9346H23.1744V18.4957H17.1744ZM20.1744 22.9346C21.6697 22.9346 23.1038 22.3406 24.1611 21.2833L19.9185 17.0406C19.9864 16.9728 20.0784 16.9346 20.1744 16.9346V22.9346ZM24.1611 21.2833C25.2185 20.2259 25.8125 18.7919 25.8125 17.2966H19.8125C19.8125 17.2006 19.8506 17.1085 19.9185 17.0406L24.1611 21.2833ZM18.2558 13.3416C18.287 13.3416 18.317 13.354 18.3391 13.3761L22.5817 9.13346C21.4344 7.98616 19.8783 7.34162 18.2558 7.34162V13.3416ZM18.3391 13.3761C18.3611 13.3982 18.3735 13.4281 18.3735 13.4594H24.3735C24.3735 11.8368 23.729 10.2808 22.5817 9.13346L18.3391 13.3761ZM25.8125 13.4594C25.8125 11.4552 25.0163 9.53312 23.5992 8.11597L19.3566 12.3586C19.6485 12.6505 19.8125 13.0465 19.8125 13.4594H25.8125ZM23.5992 8.11597C22.182 6.69881 20.26 5.90266 18.2558 5.90266V11.9027C18.6687 11.9027 19.0646 12.0667 19.3566 12.3586L23.5992 8.11597ZM-0.8125 17.2966C-0.8125 18.7919 -0.21849 20.2259 0.838856 21.2833L5.0815 17.0406C5.14937 17.1085 5.1875 17.2006 5.1875 17.2966H-0.8125ZM0.838856 21.2833C1.8962 22.3406 3.33027 22.9346 4.82558 22.9346V16.9346C4.92157 16.9346 5.01362 16.9728 5.0815 17.0406L0.838856 21.2833ZM7.82558 19.9346V18.4957H1.82558V19.9346H7.82558ZM4.82558 15.4957C5.82052 15.4957 6.62645 16.3016 6.62645 17.2966H0.626453C0.626453 19.6153 2.50681 21.4957 4.82558 21.4957V15.4957Z" fill="#3A37C6" mask="url(#path-1-inside-1_44_176)"/>
</svg>
