<svg width="40" height="37" viewBox="0 0 40 37" fill="none" xmlns="http://www.w3.org/2000/svg">
<path fill-rule="evenodd" clip-rule="evenodd" d="M19.5278 35.15C29.2341 35.15 37.1028 27.6954 37.1028 18.5C37.1028 9.30457 29.2341 1.85 19.5278 1.85C9.8215 1.85 1.95278 9.30457 1.95278 18.5C1.95278 27.6954 9.8215 35.15 19.5278 35.15ZM19.5278 37C30.313 37 39.0556 28.7176 39.0556 18.5C39.0556 8.28245 30.313 0 19.5278 0C8.74259 0 0 8.28245 0 18.5C0 28.7176 8.74259 37 19.5278 37Z" fill="#3A37C6"/>
<path fill-rule="evenodd" clip-rule="evenodd" d="M29.9457 11.3396C30.1378 11.504 30.2531 11.734 30.2663 11.9789C30.2795 12.2238 30.1894 12.4637 30.016 12.6457L16.9753 26.2996L9.09003 19.1688C8.91297 18.9974 8.81312 18.7675 8.81154 18.5277C8.80996 18.2878 8.90678 18.0568 9.08157 17.8833C9.25636 17.7098 9.49545 17.6074 9.74841 17.5977C10.0014 17.588 10.2484 17.6717 10.4374 17.8313L16.8719 23.6495L28.568 11.4053C28.6541 11.3152 28.7581 11.242 28.874 11.19C28.9899 11.138 29.1155 11.1081 29.2437 11.1021C29.3718 11.0961 29.4999 11.114 29.6207 11.155C29.7415 11.1959 29.8526 11.2589 29.9477 11.3405" fill="#3A37C6"/>
</svg>
