<svg width="25" height="25" viewBox="0 0 25 25" fill="none" xmlns="http://www.w3.org/2000/svg">
<mask id="path-1-inside-1_44_212" fill="white">
<path d="M2.64697 20.1373C2.5025 20.1373 2.38167 20.0887 2.28446 19.9915C2.18725 19.8943 2.13898 19.7741 2.13966 19.631C2.14033 19.4879 2.18894 19.3674 2.28547 19.2695C2.382 19.1716 2.50217 19.123 2.64595 19.1237H22.3531C22.4969 19.1237 22.6171 19.1723 22.7136 19.2695C22.8101 19.3667 22.8587 19.4869 22.8594 19.63C22.8601 19.7731 22.8115 19.8936 22.7136 19.9915C22.6157 20.0894 22.4956 20.138 22.3531 20.1373H2.64697ZM5.02252 18.1121C4.55605 18.1121 4.16687 17.9558 3.85499 17.6433C3.54311 17.3307 3.38684 16.9416 3.38616 16.4758V6.58371C3.38616 6.11792 3.54244 5.72874 3.85499 5.41619C4.16755 5.10363 4.55639 4.94769 5.02151 4.94837H19.9776C20.4434 4.94837 20.8322 5.10431 21.1441 5.41619C21.456 5.72807 21.6122 6.11724 21.6129 6.58371V16.4768C21.6129 16.9426 21.4566 17.3314 21.1441 17.6433C20.8315 17.9552 20.4423 18.1115 19.9765 18.1121H5.02252ZM5.02252 17.0995H19.9776C20.1328 17.0995 20.2756 17.0344 20.4059 16.9041C20.5362 16.7738 20.601 16.631 20.6003 16.4758V6.58371C20.6003 6.42845 20.5355 6.28567 20.4059 6.15538C20.2756 6.02509 20.1325 5.95995 19.9765 5.95995H5.02252C4.86658 5.95995 4.72346 6.02509 4.59318 6.15538C4.46357 6.28499 4.39876 6.42777 4.39876 6.58371V16.4768C4.39876 16.632 4.46357 16.7745 4.59318 16.9041C4.72279 17.0337 4.86557 17.0989 5.02151 17.0995"/>
</mask>
<path d="M2.64697 20.1373C2.5025 20.1373 2.38167 20.0887 2.28446 19.9915C2.18725 19.8943 2.13898 19.7741 2.13966 19.631C2.14033 19.4879 2.18894 19.3674 2.28547 19.2695C2.382 19.1716 2.50217 19.123 2.64595 19.1237H22.3531C22.4969 19.1237 22.6171 19.1723 22.7136 19.2695C22.8101 19.3667 22.8587 19.4869 22.8594 19.63C22.8601 19.7731 22.8115 19.8936 22.7136 19.9915C22.6157 20.0894 22.4956 20.138 22.3531 20.1373H2.64697ZM5.02252 18.1121C4.55605 18.1121 4.16687 17.9558 3.85499 17.6433C3.54311 17.3307 3.38684 16.9416 3.38616 16.4758V6.58371C3.38616 6.11792 3.54244 5.72874 3.85499 5.41619C4.16755 5.10363 4.55639 4.94769 5.02151 4.94837H19.9776C20.4434 4.94837 20.8322 5.10431 21.1441 5.41619C21.456 5.72807 21.6122 6.11724 21.6129 6.58371V16.4768C21.6129 16.9426 21.4566 17.3314 21.1441 17.6433C20.8315 17.9552 20.4423 18.1115 19.9765 18.1121H5.02252ZM5.02252 17.0995H19.9776C20.1328 17.0995 20.2756 17.0344 20.4059 16.9041C20.5362 16.7738 20.601 16.631 20.6003 16.4758V6.58371C20.6003 6.42845 20.5355 6.28567 20.4059 6.15538C20.2756 6.02509 20.1325 5.95995 19.9765 5.95995H5.02252C4.86658 5.95995 4.72346 6.02509 4.59318 6.15538C4.46357 6.28499 4.39876 6.42777 4.39876 6.58371V16.4768C4.39876 16.632 4.46357 16.7745 4.59318 16.9041C4.72279 17.0337 4.86557 17.0989 5.02151 17.0995" fill="#3A37C6"/>
<path d="M5.89876 17.0995V5.96096H2.89876V17.0995H5.89876ZM2.64595 19.1237L2.63187 22.1237H2.64595V19.1237ZM22.3531 20.1373L22.3673 17.1374L22.3602 17.1373H22.3531V20.1373ZM3.38616 16.4758H0.386159L0.386165 16.4801L3.38616 16.4758ZM5.02151 4.94837L5.01715 7.94837H5.02151V4.94837ZM21.6129 6.58371H24.6129L24.6129 6.57937L21.6129 6.58371ZM19.9765 18.1121V21.1121L19.9809 21.1121L19.9765 18.1121ZM20.6003 16.4758H17.6003L17.6003 16.4888L20.6003 16.4758ZM20.4059 6.15538L22.5327 4.03957L22.5272 4.03406L20.4059 6.15538ZM2.64697 17.1373C2.91645 17.1373 3.23515 17.1839 3.56751 17.3176C3.90283 17.4525 4.18461 17.649 4.40578 17.8702L0.163136 22.1128C0.854009 22.8037 1.75187 23.1373 2.64697 23.1373V17.1373ZM4.40578 17.8702C4.62551 18.0899 4.82324 18.3719 4.95916 18.7103C5.0941 19.0462 5.14092 19.3697 5.13962 19.6452L-0.860311 19.6169C-0.864589 20.5238 -0.525584 21.4241 0.163136 22.1128L4.40578 17.8702ZM5.13962 19.6452C5.13835 19.9148 5.09034 20.2294 4.95881 20.5555C4.82635 20.8839 4.6351 21.1594 4.42147 21.3761L0.149469 17.163C-0.521822 17.8437 -0.856109 18.7259 -0.860311 19.6169L5.13962 19.6452ZM4.42147 21.3761C4.19998 21.6006 3.91507 21.8024 3.57292 21.9408C3.23359 22.078 2.90756 22.125 2.63187 22.1237L2.66004 16.1237C1.74999 16.1195 0.841676 16.4611 0.149469 17.163L4.42147 21.3761ZM2.64595 22.1237H22.3531V16.1237H2.64595V22.1237ZM22.3531 22.1237C22.0816 22.1237 21.7606 22.0765 21.4261 21.9413C21.0888 21.8048 20.8061 21.6062 20.5849 21.3834L24.8423 17.1556C24.1522 16.4607 23.252 16.1237 22.3531 16.1237V22.1237ZM20.5849 21.3834C20.3684 21.1654 20.175 20.888 20.0414 20.5575C19.9087 20.2296 19.8607 19.9137 19.8594 19.6442L25.8594 19.6159C25.8552 18.7247 25.5204 17.8384 24.8423 17.1556L20.5849 21.3834ZM19.8594 19.6442C19.8581 19.366 19.9058 19.0413 20.0413 18.7055C20.1776 18.3676 20.3749 18.0875 20.5923 17.8702L24.8349 22.1128C25.52 21.4278 25.8637 20.5292 25.8594 19.6159L19.8594 19.6442ZM20.5923 17.8702C20.8083 17.6542 21.0873 17.4569 21.4251 17.3203C21.7612 17.1843 22.087 17.136 22.3673 17.1374L22.3389 23.1373C23.2559 23.1416 24.1528 22.7949 24.8349 22.1128L20.5923 17.8702ZM22.3531 17.1373H2.64697V23.1373H22.3531V17.1373ZM5.02252 15.1121C5.12933 15.1121 5.30005 15.1312 5.4987 15.211C5.70064 15.2921 5.86319 15.4086 5.97861 15.5243L1.73138 19.7623C2.64041 20.6733 3.80927 21.1121 5.02252 21.1121V15.1121ZM5.97861 15.5243C6.09257 15.6385 6.20758 15.7993 6.28781 15.9991C6.36677 16.1957 6.386 16.365 6.38616 16.4714L0.386165 16.4801C0.38792 17.6906 0.826091 18.8551 1.73138 19.7623L5.97861 15.5243ZM6.38616 16.4758V6.58371H0.386162V16.4758H6.38616ZM6.38616 6.58371C6.38616 6.69146 6.36687 6.86225 6.2873 7.0604C6.20648 7.26167 6.09064 7.42319 5.97631 7.53751L1.73367 3.29487C0.825736 4.2028 0.386162 5.36985 0.386162 6.58371H6.38616ZM5.97631 7.53751C5.86201 7.65181 5.70006 7.76809 5.49771 7.84924C5.29841 7.92917 5.1263 7.94852 5.01715 7.94836L5.02586 1.94837C3.80994 1.9466 2.64186 2.38668 1.73367 3.29487L5.97631 7.53751ZM5.02151 7.94837H19.9776V1.94837H5.02151V7.94837ZM19.9776 7.94837C19.8706 7.94837 19.7001 7.92927 19.5019 7.84975C19.3003 7.76893 19.1381 7.6528 19.0228 7.53751L23.2654 3.29487C22.3568 2.38627 21.1894 1.94837 19.9776 1.94837V7.94837ZM19.0228 7.53751C18.9074 7.42219 18.7918 7.26035 18.7113 7.05989C18.6321 6.86275 18.6131 6.69358 18.6129 6.58805L24.6129 6.57937C24.6112 5.36954 24.1737 4.20321 23.2654 3.29487L19.0228 7.53751ZM18.6129 6.58371V16.4768H24.6129V6.58371H18.6129ZM18.6129 16.4768C18.6129 16.3691 18.6322 16.1978 18.7121 15.999C18.7933 15.797 18.9098 15.6347 19.025 15.5197L23.2631 19.7669C24.1732 18.8588 24.6129 17.6907 24.6129 16.4768H18.6129ZM19.025 15.5197C19.1393 15.4057 19.3001 15.2907 19.4999 15.2105C19.6965 15.1315 19.8657 15.1123 19.9722 15.1121L19.9809 21.1121C21.1913 21.1104 22.3558 20.6722 23.2631 19.7669L19.025 15.5197ZM19.9765 15.1121H5.02252V21.1121H19.9765V15.1121ZM5.02252 20.0995H19.9776V14.0995H5.02252V20.0995ZM19.9776 20.0995C21.075 20.0995 21.9471 19.6055 22.5272 19.0254L18.2846 14.7828C18.4296 14.6378 18.6499 14.4609 18.9558 14.3213C19.271 14.1775 19.6207 14.0995 19.9776 14.0995V20.0995ZM22.5272 19.0254C23.1097 18.4429 23.6051 17.5657 23.6003 16.4627L17.6003 16.4888C17.5988 16.13 17.6761 15.7774 17.8204 15.4594C17.9605 15.1507 18.1387 14.9287 18.2846 14.7828L22.5272 19.0254ZM23.6003 16.4758V6.58371H17.6003V16.4758H23.6003ZM23.6003 6.58371C23.6003 5.49172 23.1113 4.62115 22.5327 4.03958L18.2791 8.27119C18.1342 8.12555 17.9584 7.90517 17.8199 7.60012C17.6774 7.28601 17.6003 6.93812 17.6003 6.58371H23.6003ZM22.5272 4.03406C21.9442 3.45103 21.0711 2.95995 19.9765 2.95995V8.95995C19.622 8.95995 19.2733 8.88278 18.958 8.73925C18.6517 8.59984 18.4306 8.42276 18.2846 8.2767L22.5272 4.03406ZM19.9765 2.95995H5.02252V8.95995H19.9765V2.95995ZM5.02252 2.95995C3.92797 2.95995 3.05489 3.45103 2.47186 4.03406L6.7145 8.2767C6.56844 8.42276 6.34734 8.59984 6.04109 8.73925C5.72575 8.88279 5.37702 8.95995 5.02252 8.95995V2.95995ZM2.47186 4.03406C1.88597 4.61995 1.39876 5.4934 1.39876 6.58371H7.39876C7.39876 6.93587 7.3225 7.28375 7.17913 7.59962C7.03977 7.90664 6.86218 8.12902 6.7145 8.2767L2.47186 4.03406ZM1.39876 6.58371V16.4768H7.39876V6.58371H1.39876ZM1.39876 16.4768C1.39876 17.57 1.88893 18.4425 2.47186 19.0254L6.7145 14.7828C6.8611 14.9294 7.03848 15.151 7.17802 15.4577C7.32167 15.7734 7.39876 16.1223 7.39876 16.4768H1.39876ZM2.47186 19.0254C3.0553 19.6089 3.92368 20.0948 5.00852 20.0995L5.03449 14.0996C5.38463 14.1011 5.72977 14.178 6.04277 14.3208C6.3471 14.4597 6.56773 14.636 6.7145 14.7828L2.47186 19.0254Z" fill="#3A37C6" mask="url(#path-1-inside-1_44_212)"/>
</svg>
